<svg width="1187" height="395" viewBox="0 0 1187 395" fill="none" xmlns="http://www.w3.org/2000/svg">
<rect width="395" height="395" rx="70" fill="#F7F8FC"/>
<mask id="mask0_217_4" style="mask-type:luminance" maskUnits="userSpaceOnUse" x="78" y="70" width="213" height="190">
<path d="M290.098 259.543L290.102 70.0051L78.0061 70L78.0015 259.537L290.098 259.543Z" fill="white"/>
</mask>
<g mask="url(#mask0_217_4)">
<path d="M247.552 231.199C247.545 223.684 245.026 216.479 240.548 211.167C236.07 205.853 229.998 202.864 223.665 202.857L164.165 202.855C159.907 202.935 155.679 202.009 151.726 200.131C147.773 198.252 144.175 195.46 141.14 191.916C138.105 188.371 135.695 184.145 134.051 179.485C132.406 174.825 131.559 169.822 131.559 164.77C131.559 159.717 132.406 154.715 134.051 150.055C135.696 145.395 138.106 141.169 141.142 137.625C144.177 134.081 147.775 131.288 151.728 129.41C155.681 127.532 159.909 126.606 164.167 126.686L223.667 126.688C230.002 126.688 236.077 123.702 240.557 118.387C245.036 113.072 247.553 105.863 247.553 98.3461C247.553 90.8294 245.037 83.6203 240.558 78.305C236.078 72.9898 230.003 70.0036 223.668 70.0035L157.868 70.0019C147.38 70.0016 136.994 72.4526 127.304 77.215C117.614 81.9773 108.81 88.9578 101.392 97.7576C93.9763 106.558 88.093 117.005 84.0788 128.502C80.0655 140 77.9992 152.323 77.9989 164.769C77.9986 177.214 80.0643 189.537 84.077 201.036C88.0907 212.534 93.9735 222.98 101.389 231.78C108.806 240.581 117.61 247.562 127.3 252.324C136.99 257.087 147.376 259.539 157.864 259.539L223.664 259.541C229.997 259.533 236.069 256.545 240.547 251.232C245.026 245.918 247.545 238.713 247.552 231.199ZM157.869 247.14C139.458 247.139 121.802 238.46 108.785 223.013C95.7669 207.566 88.4534 186.615 88.4539 164.769C88.4544 142.923 95.7689 121.973 108.787 106.526C121.806 91.079 139.462 82.4012 157.873 82.4017L223.668 82.4032C227.211 82.4396 230.599 84.1352 233.093 87.1212C235.588 90.107 236.988 94.1413 236.988 98.3459C236.987 102.55 235.588 106.585 233.093 109.57C230.598 112.556 227.21 114.252 223.667 114.288L164.167 114.286C152.883 114.286 142.061 119.605 134.082 129.072C126.103 138.54 121.62 151.38 121.62 164.77C121.62 178.159 126.101 191 134.08 200.468C142.059 209.935 152.881 215.255 164.165 215.255L223.665 215.256C227.228 215.257 230.645 216.936 233.165 219.926C235.684 222.916 237.1 226.971 237.1 231.199C237.1 235.428 235.684 239.482 233.164 242.472C230.645 245.461 227.227 247.141 223.664 247.141L157.869 247.14Z" fill="#8349FF"/>
<path d="M238.5 89.5L227 79.5L218 75.5H191H155.5L121.5 87L96.5 113.5L84 147.5L86.5 192.5L102 225L129.5 248L206.5 255L235.5 249.5L242.5 232L235.5 213L213 211L177.5 209.5L144 204L132 190L126 162.5L132 141L144 128L155.5 122H191L208 123.5L223.5 120.5L237 111L240 103.5L238.5 89.5Z" fill="#8349FF"/>
</g>
<mask id="mask1_217_4" style="mask-type:luminance" maskUnits="userSpaceOnUse" x="127" y="136" width="213" height="191">
<path d="M127.192 326.168L127.188 136.63L339.283 136.625L339.288 326.163L127.192 326.168Z" fill="white"/>
</mask>
<g mask="url(#mask1_217_4)">
<path d="M169.737 297.824C169.744 290.309 172.263 283.104 176.741 277.792C181.22 272.478 187.292 269.489 193.625 269.482L253.125 269.481C257.383 269.56 261.611 268.634 265.564 266.756C269.516 264.877 273.114 262.085 276.149 258.541C279.184 254.996 281.594 250.771 283.239 246.11C284.884 241.45 285.731 236.448 285.731 231.395C285.731 226.343 284.883 221.341 283.238 216.68C281.593 212.02 279.183 207.795 276.148 204.251C273.113 200.706 269.515 197.914 265.562 196.036C261.609 194.158 257.381 193.232 253.123 193.312L193.623 193.313C187.288 193.313 181.212 190.327 176.733 185.012C172.253 179.697 169.737 172.488 169.737 164.971C169.736 157.455 172.253 150.246 176.732 144.93C181.211 139.615 187.287 136.629 193.621 136.629L259.421 136.627C269.909 136.627 280.295 139.078 289.986 143.84C299.676 148.603 308.48 155.583 315.897 164.383C323.313 173.183 329.197 183.63 333.211 195.128C337.224 206.625 339.29 218.949 339.291 231.394C339.291 243.839 337.225 256.163 333.213 267.661C329.199 279.159 323.316 289.606 315.9 298.406C308.483 307.207 299.68 314.188 289.99 318.949C280.3 323.713 269.914 326.164 259.426 326.165L193.626 326.166C187.293 326.158 181.221 323.17 176.742 317.857C172.264 312.544 169.745 305.339 169.737 297.824ZM259.421 313.765C277.832 313.764 295.487 305.085 308.505 289.638C321.523 274.191 328.836 253.24 328.836 231.394C328.835 209.549 321.521 188.598 308.502 173.151C295.484 157.704 277.828 149.027 259.417 149.027L193.622 149.029C190.078 149.065 186.691 150.761 184.196 153.746C181.701 156.732 180.302 160.767 180.302 164.971C180.302 169.176 181.702 173.21 184.197 176.196C186.692 179.181 190.079 180.877 193.622 180.913L253.122 180.912C264.406 180.911 275.229 186.23 283.208 195.698C291.187 205.165 295.669 218.006 295.67 231.395C295.67 244.784 291.188 257.626 283.21 267.094C275.231 276.56 264.409 281.88 253.125 281.88L193.625 281.882C190.062 281.882 186.644 283.561 184.125 286.551C181.605 289.541 180.19 293.596 180.19 297.824C180.19 302.053 181.605 306.107 184.125 309.097C186.645 312.086 190.062 313.767 193.626 313.766L259.421 313.765Z" fill="#8349FF"/>
</g>
<path d="M509.8 293.66C501.587 293.66 493.3 292.853 484.94 291.24C476.727 289.48 469.1 286.987 462.06 283.76C455.167 280.387 449.593 276.353 445.34 271.66C441.087 266.82 438.96 261.247 438.96 254.94C438.96 246.873 441.527 240.42 446.66 235.58C451.793 230.74 457.807 228.467 464.7 228.76C470.127 228.907 475.553 230.08 480.98 232.28C486.407 234.333 491.907 236.387 497.48 238.44C503.2 240.493 508.92 241.52 514.64 241.52C520.36 241.52 524.32 240.787 526.52 239.32C528.72 237.853 529.82 235.873 529.82 233.38C529.82 230.447 528.28 228.027 525.2 226.12C522.12 224.213 518.233 222.747 513.54 221.72L502.76 219.08C491.613 216.44 481.64 213.507 472.84 210.28C464.04 206.907 457.073 202.507 451.94 197.08C446.953 191.507 444.46 184.1 444.46 174.86C444.46 164.74 447.247 156.527 452.82 150.22C458.393 143.767 465.947 139.073 475.48 136.14C485.013 133.207 495.647 131.74 507.38 131.74C519.407 131.74 529.967 132.987 539.06 135.48C548.153 137.973 555.193 141.567 560.18 146.26C565.313 150.953 567.88 156.673 567.88 163.42C567.88 170.607 565.9 176.253 561.94 180.36C558.127 184.32 552.993 186.3 546.54 186.3C542.287 186.3 537.813 185.567 533.12 184.1C528.573 182.633 523.733 181.24 518.6 179.92C513.613 178.453 508.26 177.72 502.54 177.72C497.407 177.72 493.52 178.527 490.88 180.14C488.24 181.607 486.92 183.587 486.92 186.08C486.92 189.16 488.68 191.433 492.2 192.9C495.72 194.367 501.513 196.127 509.58 198.18L521.9 201.04C532.02 203.533 540.893 206.54 548.52 210.06C556.147 213.58 562.087 218.2 566.34 223.92C570.593 229.64 572.72 237.12 572.72 246.36C572.72 257.507 570.08 266.6 564.8 273.64C559.52 280.533 552.187 285.593 542.8 288.82C533.413 292.047 522.413 293.66 509.8 293.66ZM641.042 132.84C658.495 132.84 672.722 136.14 683.722 142.74C694.869 149.193 703.082 158.433 708.362 170.46C713.789 182.34 716.502 196.493 716.502 212.92C716.502 240.493 710.562 260.733 698.682 273.64C686.802 286.547 668.615 293 644.122 293H634.442C627.255 293 620.582 292.267 614.422 290.8C608.262 289.333 602.835 286.693 598.142 282.88C593.449 278.92 589.782 273.42 587.142 266.38C584.502 259.34 583.182 250.247 583.182 239.1C583.182 228.687 584.575 219.667 587.362 212.04C590.295 204.413 593.742 198.327 597.702 193.78C601.662 189.233 605.255 186.447 608.482 185.42L607.382 181.24H603.642C596.895 181.24 591.542 179.113 587.582 174.86C583.769 170.46 581.789 164.593 581.642 157.26C581.495 149.927 583.402 144.06 587.362 139.66C591.469 135.113 596.895 132.84 603.642 132.84H641.042ZM625.202 236.24C625.202 239.32 625.862 241.447 627.182 242.62C628.649 243.793 630.775 244.38 633.562 244.38H645.442C652.922 244.38 658.715 242.767 662.822 239.54C666.929 236.313 669.789 232.207 671.402 227.22C673.162 222.087 674.042 216.66 674.042 210.94C674.042 205.22 673.162 199.72 671.402 194.44C669.789 189.16 666.929 184.833 662.822 181.46C658.715 178.087 652.922 176.4 645.442 176.4H633.562C630.775 176.4 628.649 177.06 627.182 178.38C625.862 179.553 625.202 181.753 625.202 184.98V236.24ZM763.171 293C752.905 293 744.545 289.113 738.091 281.34C731.638 273.567 728.338 262.64 728.191 248.56L727.971 197.74C727.971 191.433 729.878 186.52 733.691 183C737.651 179.333 743.005 177.5 749.751 177.5C756.205 177.5 761.411 179.333 765.371 183C769.331 186.52 771.311 191.433 771.311 197.74V243.72C771.311 254.72 775.638 260.22 784.291 260.22C788.545 260.22 791.405 258.68 792.871 255.6C794.338 252.373 795.071 248.267 795.071 243.28V197.74C795.071 192.02 797.051 187.253 801.011 183.44C804.971 179.48 810.105 177.5 816.411 177.5C823.011 177.5 828.071 179.48 831.591 183.44C835.258 187.253 837.091 192.02 837.091 197.74V269.9C837.091 276.94 835.478 282.587 832.251 286.84C829.171 290.947 824.111 293 817.071 293C810.178 293 804.751 290.947 800.791 286.84C796.978 282.587 795.071 276.94 795.071 269.9V266.16H791.111C791.111 274.667 788.545 281.267 783.411 285.96C778.425 290.653 771.678 293 763.171 293ZM912.299 293.66C904.525 293.66 897.485 291.9 891.179 288.38C885.019 284.86 880.179 279.873 876.659 273.42C873.139 266.82 871.379 259.12 871.379 250.32V211.6L863.239 212.7C858.839 213.287 854.952 211.747 851.579 208.08C848.205 204.413 846.519 199.793 846.519 194.22C846.519 188.647 848.205 184.1 851.579 180.58C854.952 176.913 858.839 175.373 863.239 175.96L871.379 177.06L871.159 162.1C871.012 156.233 872.699 151.613 876.219 148.24C879.739 144.72 884.872 142.96 891.619 142.96C898.365 142.96 903.572 144.72 907.239 148.24C910.905 151.613 912.592 156.233 912.299 162.1L911.859 177.06L923.519 175.52C931.439 174.347 937.452 175.813 941.559 179.92C945.665 183.88 947.719 188.647 947.719 194.22C947.719 199.793 945.665 204.633 941.559 208.74C937.599 212.7 931.805 214.167 924.179 213.14L911.859 211.6V244.38C911.859 246.287 912.519 248.047 913.839 249.66C915.159 251.127 916.772 251.567 918.679 250.98C920.879 250.393 923.152 249.147 925.499 247.24C927.992 245.333 931.145 244.38 934.959 244.38C940.679 244.38 945.079 246.433 948.159 250.54C951.239 254.647 952.779 259.707 952.779 265.72C952.779 270.413 951.092 274.96 947.719 279.36C944.492 283.613 939.872 287.06 933.859 289.7C927.845 292.34 920.659 293.66 912.299 293.66ZM1020.79 293.66C1013.02 293.66 1005.98 291.9 999.675 288.38C993.515 284.86 988.675 279.873 985.155 273.42C981.635 266.82 979.875 259.12 979.875 250.32V211.6L971.735 212.7C967.335 213.287 963.448 211.747 960.075 208.08C956.701 204.413 955.015 199.793 955.015 194.22C955.015 188.647 956.701 184.1 960.075 180.58C963.448 176.913 967.335 175.373 971.735 175.96L979.875 177.06L979.655 162.1C979.508 156.233 981.195 151.613 984.715 148.24C988.235 144.72 993.368 142.96 1000.11 142.96C1006.86 142.96 1012.07 144.72 1015.73 148.24C1019.4 151.613 1021.09 156.233 1020.79 162.1L1020.35 177.06L1032.01 175.52C1039.93 174.347 1045.95 175.813 1050.05 179.92C1054.16 183.88 1056.21 188.647 1056.21 194.22C1056.21 199.793 1054.16 204.633 1050.05 208.74C1046.09 212.7 1040.3 214.167 1032.67 213.14L1020.35 211.6V244.38C1020.35 246.287 1021.01 248.047 1022.33 249.66C1023.65 251.127 1025.27 251.567 1027.17 250.98C1029.37 250.393 1031.65 249.147 1033.99 247.24C1036.49 245.333 1039.64 244.38 1043.45 244.38C1049.17 244.38 1053.57 246.433 1056.65 250.54C1059.73 254.647 1061.27 259.707 1061.27 265.72C1061.27 270.413 1059.59 274.96 1056.21 279.36C1052.99 283.613 1048.37 287.06 1042.35 289.7C1036.34 292.34 1029.15 293.66 1020.79 293.66ZM1103.64 293C1092.78 293 1084.28 290.067 1078.12 284.2C1072.1 278.333 1069.1 270.12 1069.1 259.56C1069.1 249 1072.62 241.373 1079.66 236.68C1086.7 231.84 1095.72 229.42 1106.72 229.42C1113.17 229.42 1119.04 229.86 1124.32 230.74C1129.6 231.62 1134.36 232.867 1138.62 234.48H1139.28V231.18C1139.28 227.807 1138.03 225.167 1135.54 223.26C1133.04 221.207 1129.89 220.253 1126.08 220.4C1122.41 220.4 1119.26 220.62 1116.62 221.06C1114.12 221.5 1110.97 222.233 1107.16 223.26C1100.12 225.02 1094.03 224.873 1088.9 222.82C1083.76 220.767 1080.24 216.733 1078.34 210.72C1076.58 204.413 1076.94 199.133 1079.44 194.88C1082.08 190.627 1086.04 187.327 1091.32 184.98C1095.86 182.78 1100.92 180.947 1106.5 179.48C1112.22 178.013 1118.38 177.28 1124.98 177.28C1144.19 177.28 1158.27 181.973 1167.22 191.36C1176.31 200.6 1180.86 216.147 1180.86 238V272.1C1180.86 278.113 1179.02 283.1 1175.36 287.06C1171.69 291.02 1166.63 293 1160.18 293C1153.14 293 1147.86 291.02 1144.34 287.06C1140.96 283.1 1139.28 278.26 1139.28 272.54V267.48H1134.88C1134.88 271.293 1134.14 275.18 1132.68 279.14C1131.36 283.1 1128.5 286.4 1124.1 289.04C1119.84 291.68 1113.02 293 1103.64 293ZM1105.84 244.82C1105.84 247.313 1106.72 249.073 1108.48 250.1C1110.38 251.127 1114.42 251.64 1120.58 251.64C1126.15 251.64 1130.04 251.127 1132.24 250.1C1134.44 249.073 1135.54 247.313 1135.54 244.82C1135.54 242.473 1134.44 240.86 1132.24 239.98C1130.04 238.953 1126.15 238.44 1120.58 238.44C1114.42 238.44 1110.38 238.953 1108.48 239.98C1106.72 240.86 1105.84 242.473 1105.84 244.82Z" fill="#F7F8FC"/>
</svg>
